# xmcd CD database generated by RipIT
#
# Track frame offsets:
# 150
# 6028
# 15863
# 25521
# 35667
# 43452
# 52523
# 63078
# 72884
# 81688
# 94253
# 108281
# 121102
# 130106
# 141407
#
# Disc length: 2034 seconds
#
# Revision: 0
# Processed by: cddbd v1.5.2PL0 Copyright (c) Steve Scherf et al.
# Submitted via: RipIT 3.9.0 www.suwald.com/ripit/ripit.html on 2012-10-18 at 08:46
#
DISCID=bc07f00f
DTITLE=Ken Davidson - Spotlight On Guitar
DYEAR=1962
DGENRE=Country
TTITLE0=Wildwood Flower
TTITLE1=Rideau River Waltz
TTITLE2=Oriental Melody
TTITLE3=Waltz By Carcissi
TTITLE4=Kevin's Schottische
TTITLE5=Waltz Of The Roses
TTITLE6=Twist Man Easy
TTITLE7=The Swiss Yodeler
TTITLE8=Sun Shadows
TTITLE9=Border Serenade
TTITLE10=Steel Strings
TTITLE11=Scotch Boogie
TTITLE12=11:30 In Stalingrad
TTITLE13=Guitar Poeme
TTITLE14=Teenage Walk
EXTD=Rosedale Music R 2068
EXTD=\n
EXTT0=
EXTT1=
EXTT2=
EXTT3=
EXTT4=
EXTT5=
EXTT6=
EXTT7=
EXTT8=
EXTT9=
EXTT10=
EXTT11=
EXTT12=
EXTT13=
EXTT14=
PLAYORDER=
